<?xml version="1.0" standalone="no"?>
<!DOCTYPE svg PUBLIC "-//W3C//DTD SVG 20010904//EN"
 "http://www.w3.org/TR/2001/REC-SVG-20010904/DTD/svg10.dtd">
<svg version="1.0" xmlns="http://www.w3.org/2000/svg"
 width="976.000000pt" height="976.000000pt" viewBox="0 0 976.000000 976.000000"
 preserveAspectRatio="xMidYMid meet">
<metadata>
Created by potrace 1.11, written by Peter Selinger 2001-2013
</metadata>
<g transform="translate(0.000000,976.000000) scale(0.100000,-0.100000)"
fill="#000000" stroke="none">
<path d="M9525 9649 c-44 -16 -87 -32 -95 -36 -8 -3 -17 -7 -20 -7 -5 -1 -89
-31 -120 -43 -8 -4 -17 -7 -20 -8 -3 -1 -12 -5 -20 -8 -8 -4 -49 -18 -90 -33
-41 -15 -86 -31 -100 -37 -14 -6 -29 -11 -35 -12 -5 0 -20 -6 -31 -13 -12 -6
-24 -8 -28 -5 -3 3 -6 2 -6 -4 0 -5 -6 -10 -12 -10 -12 0 -86 -27 -261 -95
-44 -16 -86 -31 -95 -33 -10 -2 -19 -4 -22 -5 -3 -1 -8 -2 -12 -1 -5 0 -8 -4
-8 -10 0 -5 -4 -8 -8 -5 -5 3 -19 -1 -33 -7 -13 -7 -67 -28 -119 -46 -52 -18
-108 -39 -125 -46 -39 -17 -67 -27 -80 -30 -5 -2 -73 -26 -150 -55 -77 -29
-144 -53 -150 -54 -5 -1 -15 -5 -21 -8 -11 -8 -91 -37 -114 -42 -8 -2 -58 -21
-110 -41 -52 -21 -99 -38 -105 -40 -5 -1 -17 -5 -25 -8 -28 -12 -185 -69 -205
-74 -11 -3 -24 -9 -30 -13 -5 -4 -26 -11 -45 -15 -19 -4 -39 -11 -45 -14 -11
-8 -103 -44 -120 -47 -9 -2 -72 -25 -130 -49 -11 -4 -26 -9 -33 -11 -12 -2
-102 -36 -147 -55 -36 -15 -160 -60 -177 -64 -9 -2 -25 -8 -35 -13 -10 -6 -20
-10 -23 -10 -3 0 -16 -5 -30 -11 -58 -24 -256 -94 -267 -94 -7 0 -13 -4 -13
-9 0 -4 -7 -8 -15 -8 -9 0 -152 -135 -318 -300 -166 -164 -538 -533 -826 -820
-332 -329 -532 -520 -545 -521 -40 -2 -111 -9 -156 -14 -25 -3 -63 -7 -85 -9
-23 -1 -45 -5 -50 -8 -6 -2 -25 -4 -42 -3 -18 0 -33 -2 -33 -5 0 -3 -19 -5
-42 -4 -24 0 -47 -1 -52 -4 -5 -3 -34 -6 -65 -7 -31 -2 -69 -5 -86 -8 -16 -3
-56 -8 -87 -11 -32 -3 -84 -9 -115 -12 -32 -3 -69 -7 -83 -9 -40 -6 -131 -16
-185 -20 -27 -2 -50 -5 -50 -5 0 -1 -13 -3 -30 -4 -16 -2 -57 -6 -90 -10 -33
-4 -82 -9 -110 -12 -27 -3 -63 -6 -80 -8 -16 -2 -61 -7 -100 -11 -99 -9 -124
-12 -175 -19 -25 -4 -68 -8 -96 -10 -28 -2 -57 -6 -63 -10 -6 -4 -16 -4 -22
-1 -9 6 -67 -32 -119 -77 -8 -7 -32 -26 -55 -42 -22 -16 -47 -35 -55 -43 -8
-8 -29 -24 -46 -36 -40 -28 -132 -99 -161 -123 -12 -11 -47 -37 -77 -59 -31
-22 -56 -43 -56 -47 0 -4 -4 -8 -10 -8 -9 0 -29 -15 -64 -45 -6 -6 -56 -44
-111 -85 -55 -41 -111 -85 -125 -97 -14 -13 -29 -23 -35 -23 -6 0 -16 -9 -23
-21 -7 -12 -16 -19 -19 -16 -2 3 -13 -2 -22 -11 -35 -33 -71 -62 -79 -62 -4 0
-14 -9 -22 -20 -8 -11 -18 -20 -23 -20 -5 0 -24 -12 -41 -27 -18 -16 -44 -37
-60 -48 -15 -11 -37 -28 -49 -37 -29 -23 -35 -28 -82 -63 -22 -16 -45 -34 -51
-40 -7 -5 -24 -19 -40 -30 -15 -11 -32 -25 -38 -30 -6 -6 -49 -38 -96 -73 -47
-34 -94 -71 -105 -80 -11 -10 -36 -29 -55 -42 -19 -13 -37 -27 -40 -30 -5 -6
-123 -96 -175 -134 -14 -11 -35 -27 -45 -35 -10 -9 -31 -25 -46 -36 -15 -11
-46 -35 -68 -53 -62 -51 -69 -56 -96 -73 -14 -9 -36 -27 -50 -39 -14 -12 -45
-36 -70 -53 -25 -17 -47 -34 -50 -38 -3 -4 -46 -37 -95 -74 -50 -37 -92 -71
-95 -75 -3 -4 -16 -13 -29 -20 -29 -15 -13 -29 27 -24 15 2 77 6 137 9 156 7
282 13 420 21 66 4 129 6 140 5 11 -1 25 -2 30 -2 6 1 37 3 70 6 33 2 116 7
185 9 69 3 125 6 125 6 0 1 43 3 95 5 52 2 142 6 200 9 165 8 391 18 440 20
25 1 51 5 58 9 7 5 12 3 12 -3 0 -6 4 -9 10 -5 5 3 73 8 152 11 79 3 161 6
184 8 l41 3 1123 -1124 c618 -617 1126 -1123 1130 -1123 4 0 5 -23 4 -50 -2
-28 -6 -107 -9 -178 -3 -70 -7 -170 -10 -222 -11 -230 -15 -330 -29 -648 -2
-46 -6 -85 -9 -89 -4 -3 -2 -13 3 -23 5 -10 6 -20 3 -24 -4 -4 -8 -34 -9 -69
-4 -101 -14 -335 -19 -437 -2 -52 -7 -153 -10 -225 -4 -72 -8 -159 -10 -195
-7 -146 -8 -201 -2 -207 4 -3 7 -1 7 6 0 11 44 74 91 129 6 7 34 43 62 80 28
37 54 68 59 70 4 2 8 10 8 18 0 8 4 14 8 14 4 0 15 12 24 27 9 16 25 37 35 48
10 11 59 74 108 140 50 65 97 127 105 136 23 26 50 61 77 101 14 21 30 38 34
38 5 0 9 6 9 13 0 6 18 32 40 57 22 24 40 47 40 51 0 4 16 24 35 45 19 22 35
42 35 45 0 3 11 19 25 35 38 43 45 53 45 59 0 4 7 13 15 22 20 20 194 245 223
289 12 19 27 34 32 34 6 0 10 7 10 15 0 8 5 15 10 15 6 0 10 6 10 14 0 8 4 16
8 18 4 2 23 23 42 48 19 25 37 47 40 50 5 5 109 141 145 190 23 31 54 72 110
143 22 29 54 70 70 92 16 22 34 45 40 51 5 7 19 24 30 39 41 56 176 231 195
251 11 12 20 27 20 33 0 6 5 11 10 11 6 0 10 5 10 10 0 9 30 47 68 86 6 7 12
17 12 23 0 6 4 11 9 11 11 0 24 34 27 70 1 14 3 25 4 25 2 0 5 23 14 113 3 29
8 57 12 64 5 7 3 8 -6 3 -9 -6 -11 -4 -5 4 8 14 17 83 19 143 1 21 3 38 6 38
3 0 6 15 6 33 1 17 4 59 8 92 4 33 9 80 11 105 3 42 13 132 20 190 2 14 6 54
9 90 4 36 9 76 11 90 2 14 7 59 10 100 4 41 8 82 10 90 2 8 6 44 10 80 4 36 9
68 12 73 2 4 -1 7 -8 7 -8 0 -8 4 -1 13 6 6 13 46 17 87 4 41 8 89 10 105 1
17 6 62 10 100 4 39 9 84 11 100 2 17 6 53 9 82 2 28 6 57 7 63 2 6 371 379
821 829 449 450 817 826 817 835 0 9 4 16 8 16 5 0 9 6 9 13 1 6 18 57 38 112
21 55 44 118 52 139 8 22 41 112 74 200 33 89 64 172 69 186 5 14 15 39 21 55
7 17 13 35 15 40 5 17 61 169 75 200 7 17 13 32 14 35 6 26 29 87 35 95 5 6 9
15 9 20 0 16 31 97 47 128 8 15 13 27 9 27 -3 0 2 17 11 38 18 42 75 192 78
207 2 6 9 24 15 40 7 17 14 35 15 40 2 6 6 17 9 25 15 34 89 236 92 250 2 8 4
17 5 20 1 3 2 8 1 13 0 4 4 7 9 7 6 0 10 6 10 12 0 14 52 158 91 253 4 11 18
49 30 85 12 36 27 71 32 78 5 6 7 12 4 12 -3 0 0 12 8 27 8 15 12 30 9 35 -3
4 0 8 7 8 7 0 9 3 6 6 -3 4 -1 16 5 28 7 11 13 26 14 32 2 14 102 282 115 309
6 12 11 27 13 35 2 8 7 24 11 35 31 77 97 252 98 260 2 10 58 163 77 210 20
49 31 86 27 85 -1 -1 -38 -14 -82 -31z"/>
<path d="M2461 3871 c-14 -37 -62 -183 -66 -201 -3 -17 -44 -147 -52 -170 -3
-8 -8 -24 -10 -35 -1 -11 -7 -29 -12 -40 -6 -11 -31 -90 -56 -175 -26 -85 -55
-180 -65 -210 -19 -58 -64 -202 -65 -210 -1 -9 -76 -244 -82 -260 -3 -8 -7
-20 -8 -26 -2 -6 -15 -51 -31 -100 -15 -49 -29 -91 -29 -94 0 -3 -6 -21 -13
-41 -7 -20 -14 -45 -17 -55 -2 -10 -13 -45 -24 -76 -12 -32 -21 -66 -21 -77 0
-11 -5 -23 -11 -26 -6 -4 -8 -13 -5 -21 3 -8 1 -14 -4 -14 -6 0 -10 -10 -10
-23 0 -13 -3 -27 -7 -31 -4 -3 -8 -15 -10 -26 -2 -11 -12 -46 -23 -77 -11 -32
-20 -60 -20 -64 0 -7 142 41 176 59 10 5 21 10 24 10 17 2 134 45 148 55 6 5
12 6 12 2 0 -4 7 -2 15 5 8 7 15 10 15 6 0 -3 17 1 38 10 20 8 73 28 117 44
44 16 125 45 180 65 55 20 105 38 110 39 6 1 27 10 49 19 21 9 42 17 47 17 7
0 145 50 194 71 11 4 61 22 110 40 148 52 268 95 298 108 16 6 34 11 42 11 8
0 17 5 20 10 3 6 13 10 21 10 8 0 31 7 52 16 20 10 44 18 53 20 9 2 29 9 45
15 16 7 34 13 39 14 9 3 91 33 166 63 24 10 4 31 -569 609 -326 329 -629 634
-672 679 -79 80 -79 80 -89 55z"/>
</g>
</svg>
